<?xml version="1.0" standalone="no"?>
<!DOCTYPE svg PUBLIC "-//W3C//DTD SVG 20010904//EN"
 "http://www.w3.org/TR/2001/REC-SVG-20010904/DTD/svg10.dtd">
<svg version="1.0" xmlns="http://www.w3.org/2000/svg"
 width="114.000000pt" height="114.000000pt" viewBox="0 0 114.000000 114.000000"
 preserveAspectRatio="xMidYMid meet">
<metadata>
Created by potrace 1.11, written by Peter Selinger 2001-2013
</metadata>
<g transform="translate(0.000000,114.000000) scale(0.100000,-0.100000)"
fill="#000000" stroke="none">
<path d="M500 1131 c-8 -5 -48 -16 -87 -26 l-73 -17 -14 -47 c-7 -25 -19 -69
-26 -96 l-13 -50 69 -69 69 -68 65 16 c36 9 76 19 90 22 35 7 35 8 63 110 l25
92 -72 71 c-77 76 -74 74 -96 62z"/>
<path d="M811 1015 c-46 -13 -87 -27 -91 -32 -7 -8 -38 -115 -46 -161 -4 -21
7 -38 62 -93 52 -53 73 -67 89 -63 12 3 28 6 36 8 8 1 42 10 75 21 l62 18 17
66 c33 126 35 115 -41 192 -38 38 -71 69 -74 68 -3 -1 -43 -12 -89 -24z"/>
<path d="M136 816 l-79 -22 -28 -95 -28 -94 75 -73 c42 -41 79 -70 85 -66 6 4
48 17 92 29 48 13 81 27 83 36 2 8 13 50 25 94 l22 80 -67 68 c-36 37 -74 67
-84 66 -9 0 -52 -11 -96 -23z"/>
<path d="M510 726 l-75 -21 -26 -95 -26 -95 69 -67 c39 -38 73 -68 76 -68 4 0
47 10 95 22 l88 23 19 66 c38 128 40 119 -33 193 -74 74 -75 75 -187 42z m141
-82 c41 -41 46 -50 38 -71 -5 -13 -11 -38 -14 -56 -8 -40 -6 -39 -75 -58 l-59
-16 -45 46 -44 46 16 61 16 61 55 15 c31 8 58 16 61 17 2 0 25 -20 51 -45z"/>
<path d="M903 632 c-54 -14 -93 -30 -93 -37 0 -7 -11 -49 -24 -94 l-23 -82 70
-69 c66 -65 79 -71 117 -58 8 3 44 13 80 22 l65 17 24 95 24 96 -59 60 c-33
33 -66 63 -74 67 -9 5 -53 -2 -107 -17z"/>
<path d="M248 441 c-48 -14 -90 -29 -93 -33 -4 -3 -17 -46 -31 -94 l-24 -89
70 -69 69 -70 93 24 c51 13 94 24 96 25 1 1 14 44 28 96 l25 93 -73 71 -73 72
-87 -26z"/>
<path d="M615 349 c-38 -11 -74 -24 -79 -29 -5 -5 -19 -48 -32 -97 l-24 -88
69 -69 69 -69 91 23 c49 12 94 27 99 34 4 6 18 50 30 97 l22 87 -67 66 c-40
39 -76 66 -88 65 -11 0 -51 -9 -90 -20z"/>
</g>
</svg>
